<svg xmlns="http://www.w3.org/2000/svg" viewBox="0 0 64.695 64.695"><defs><style>.a{fill:none;}.b{fill:#fff;}</style></defs><g transform="translate(0 0)"><rect class="a" width="64.695" height="64.695" transform="translate(0 0)"/><path class="b" d="M989.336-61.983a6.65,6.65,0,0,1,6.651,6.651,6.65,6.65,0,0,1-6.651,6.651,6.65,6.65,0,0,1-6.651-6.651A6.65,6.65,0,0,1,989.336-61.983Zm0,28.5c9.406,0,19.318,4.624,19.318,6.651v3.484H970.017v-3.484C970.017-28.856,979.93-33.48,989.336-33.48Zm0-34.52a12.664,12.664,0,0,0-12.668,12.668,12.664,12.664,0,0,0,12.668,12.668A12.664,12.664,0,0,0,1002-55.332,12.664,12.664,0,0,0,989.336-68Zm0,28.5C980.88-39.5,964-35.253,964-26.829v9.5h50.672v-9.5C1014.672-35.253,997.792-39.5,989.336-39.5Z" transform="translate(-956.988 75.012)"/></g></svg>